<svg xmlns="http://www.w3.org/2000/svg" viewBox="0 0 120 120" fill="none" aria-hidden="true">
  <defs>
    <linearGradient id="brand-gradient" x1="18" y1="60" x2="102" y2="60" gradientUnits="userSpaceOnUse">
      <stop stop-color="currentColor" />
      <stop offset="1" stop-color="var(--color-accent-soft, currentColor)" />
    </linearGradient>
  </defs>
  <g stroke="url(#brand-gradient)" stroke-width="4" stroke-linecap="round" stroke-linejoin="round">
    <ellipse cx="54" cy="60" rx="36" ry="46" />
    <path d="M54 14c18 0 34 8 48 24-12 3-22 12-28 25-5 11-7 25-5 43" opacity="0.95" />
    <path d="M54 40c-5-7-16-7-21 0-5 6-3 15 2 20-7 0-12 6-12 13 0 8 7 14 15 14 1 0 2 0 4-.3-3 9 5 20 16 20 8 0 14-6 16-12V51c0-7-5-13-12-13-3 0-6 1-8 2Z" />
    <path d="M66 40c5-7 16-7 21 0 5 6 3 15-2 20 7 0 12 6 12 13 0 8-7 14-15 14-1 0-2 0-4-.3 3 9-5 20-16 20-8 0-14-6-16-12" />
    <path d="M46 54c4 1 7 4 8 8" />
    <path d="M42 71c3 3 8 5 13 4" />
    <path d="M74 54c-4 1-7 4-8 8" />
    <path d="M78 71c-3 3-8 5-13 4" />
  </g>
</svg>
